<svg width="128" height="128" viewBox="0 0 128 128" fill="none" xmlns="http://www.w3.org/2000/svg">
<rect width="128" height="128" rx="25" fill="#09090B"/>
<path fill-rule="evenodd" clip-rule="evenodd" d="M55.3205 98.9866V99.0134L63.9576 104L89.9615 88.9866V79.0134L89.9384 79L89.9615 78.9866V69.0134L89.9384 69L89.9615 68.9866V59.0134L81.2781 54L81.3013 53.9866V44.0134L81.2781 44L81.3013 43.9866V34.0134L63.9576 24L55.3205 28.9866V29.0134L55.2973 29L46.6603 33.9866V54.0134L46.6371 54L38 58.9866V89.0134L46.6371 94L46.6603 93.9866V94.0134L55.2973 99L55.3205 98.9866ZM63.9808 94.0134L46.6371 84L46.6603 83.9866V74.0134L46.6371 74L46.6603 73.9866V64.0134L46.6371 64L63.9808 53.9866V54.0134L72.6179 59L72.641 58.9866V59.0134L81.2781 64L81.3013 63.9866V84.0134L81.2781 84L72.641 88.9866V89.0134L72.6178 89L63.9808 93.9866V94.0134ZM72.641 49.0134L63.9576 44L55.3205 48.9866V49.0134L55.2973 49L55.3205 48.9866V39.0134L55.2973 39L63.9808 33.9866V34.0134L72.6179 39L72.641 38.9866V49.0134Z" fill="#FAFAFA"/>
<path d="M55.3205 79.0134L63.9576 84L72.641 78.9866V69.0134L63.9576 64L55.3205 68.9866V79.0134Z" fill="#FAFAFA"/>
</svg>
