<svg width="33" height="50" viewBox="0 0 33 50" fill="none" xmlns="http://www.w3.org/2000/svg">
<path fill-rule="evenodd" clip-rule="evenodd" d="M10.8253 46.8666V46.8834L16.2235 50L32.476 40.6166V34.3834L32.4615 34.375L32.476 34.3666V28.1334L32.4615 28.125L32.476 28.1166V21.8834L27.0488 18.75L27.0633 18.7416V12.5084L27.0488 12.5L27.0633 12.4916V6.25836L16.2235 0L10.8253 3.11664V3.13336L10.8108 3.125L5.41266 6.24163V18.7584L5.39817 18.75L0 21.8666V40.6334L5.39817 43.75L5.41266 43.7416V43.7584L10.8108 46.875L10.8253 46.8666ZM16.238 43.7584L5.39818 37.5L5.41266 37.4916V31.2584L5.39818 31.25L5.41266 31.2416V25.0084L5.39818 25L16.238 18.7416V18.7584L21.6362 21.875L21.6506 21.8666V21.8834L27.0488 25L27.0633 24.9916V37.5084L27.0488 37.5L21.6506 40.6166V40.6334L21.6362 40.625L16.238 43.7416V43.7584ZM21.6506 15.6334L16.2235 12.5L10.8253 15.6166V15.6334L10.8108 15.625L10.8253 15.6166V9.38337L10.8108 9.375L16.238 6.24164V6.25836L21.6362 9.375L21.6506 9.36664V15.6334Z" fill="url(#paint0_linear_1544_2)"/>
<path d="M10.8253 34.3834L16.2235 37.5L21.6506 34.3666V28.1334L16.2235 25L10.8253 28.1166V34.3834Z" fill="url(#paint1_linear_1544_2)"/>
<defs>
<linearGradient id="paint0_linear_1544_2" x1="16.238" y1="0" x2="16.238" y2="50" gradientUnits="userSpaceOnUse">
<stop stop-color="#B3B3B3"/>
<stop offset="1" stop-color="#282828"/>
</linearGradient>
<linearGradient id="paint1_linear_1544_2" x1="16.238" y1="0" x2="16.238" y2="50" gradientUnits="userSpaceOnUse">
<stop stop-color="#B3B3B3"/>
<stop offset="1" stop-color="#282828"/>
</linearGradient>
</defs>
</svg>
