<svg width="65" height="100" viewBox="0 0 65 100" fill="none" xmlns="http://www.w3.org/2000/svg">
<path fill-rule="evenodd" clip-rule="evenodd" d="M21.6506 93.7333V93.7667L32.447 100L64.9519 81.2333V68.7667L64.9229 68.75L64.9519 68.7333V56.2667L64.923 56.25L64.9519 56.2333V43.7667L54.0976 37.5L54.1266 37.4833V25.0167L54.0976 25L54.1266 24.9833V12.5167L32.447 0L21.6506 6.23327V6.26673L21.6217 6.25L10.8253 12.4833V37.5167L10.7963 37.5L0 43.7333V81.2667L10.7963 87.5L10.8253 87.4833V87.5167L21.6217 93.75L21.6506 93.7333ZM32.476 87.5167L10.7964 75L10.8253 74.9833V62.5167L10.7964 62.5L10.8253 62.4833V50.0167L10.7964 50L32.476 37.4833V37.5167L43.2723 43.75L43.3013 43.7333V43.7667L54.0976 50L54.1266 49.9833V75.0167L54.0976 75L43.3013 81.2333V81.2667L43.2723 81.25L32.476 87.4833V87.5167ZM43.3013 31.2667L32.447 25L21.6506 31.2333V31.2667L21.6217 31.25L21.6506 31.2333V18.7667L21.6217 18.75L32.476 12.4833V12.5167L43.2723 18.75L43.3013 18.7333V31.2667Z" fill="#FAFAFA"/>
<path d="M21.6506 68.7667L32.447 75L43.3013 68.7333V56.2667L32.447 50L21.6506 56.2333V68.7667Z" fill="#FAFAFA"/>
</svg>
